<?xml version="1.0" encoding="utf-8"?>
<!-- Generator: Adobe Illustrator 24.1.3, SVG Export Plug-In . SVG Version: 6.00 Build 0)  -->
<svg version="1.1" id="Layer_1" xmlns="http://www.w3.org/2000/svg" xmlns:xlink="http://www.w3.org/1999/xlink" x="0px" y="0px"
	 viewBox="0 0 504 144" enable-background="new 0 0 504 144" xml:space="preserve">
<path id="path39880" fill="#22314E" d="M49.706,38.466c0,5.434-4.264,9.841-9.524,9.841c-5.259,0-9.522-4.407-9.522-9.841
	c0-5.435,4.264-9.841,9.522-9.841C45.442,28.625,49.706,33.032,49.706,38.466z"/>
<path id="path39882" fill="#22314E" d="M49.706,72.002c0,5.435-4.264,9.843-9.524,9.843c-5.259,0-9.522-4.408-9.522-9.843
	c0-5.434,4.264-9.841,9.522-9.841C45.442,62.161,49.706,66.568,49.706,72.002z"/>
<path id="path39884" fill="#22314E" d="M49.706,105.538c0,5.436-4.264,9.842-9.524,9.842c-5.259,0-9.522-4.406-9.522-9.842
	c0-5.434,4.264-9.84,9.522-9.84C45.442,95.698,49.706,100.104,49.706,105.538z"/>
<path id="path39886" fill="#22314E" d="M82.935,72.002c0,5.435-4.264,9.843-9.522,9.843s-9.523-4.408-9.523-9.843
	c0-5.434,4.265-9.841,9.523-9.841S82.935,66.568,82.935,72.002z"/>
<path id="path39888" fill="#22314E" d="M82.935,38.466c0,5.434-4.264,9.841-9.522,9.841s-9.523-4.407-9.523-9.841
	c0-5.435,4.265-9.841,9.523-9.841S82.935,33.032,82.935,38.466z"/>
<path id="path39890" fill="#22314E" d="M116.165,72.002c0,5.435-4.264,9.843-9.523,9.843c-5.259,0-9.522-4.408-9.522-9.843
	c0-5.434,4.264-9.841,9.522-9.841C111.902,62.161,116.165,66.568,116.165,72.002z"/>
<path id="path39892" fill="#22314E" d="M116.165,38.466c0,5.434-4.264,9.841-9.523,9.841c-5.259,0-9.522-4.407-9.522-9.841
	c0-5.435,4.264-9.841,9.522-9.841C111.902,28.625,116.165,33.032,116.165,38.466z"/>
<path id="path39894" fill="#22314E" d="M116.165,105.538c0,5.436-4.264,9.842-9.523,9.842c-5.259,0-9.522-4.406-9.522-9.842
	c0-5.434,4.264-9.84,9.522-9.84C111.902,95.698,116.165,100.104,116.165,105.538z"/>
<path id="path39896" fill="#22314E" d="M82.935,105.538c0,5.436-4.264,9.842-9.522,9.842s-9.523-4.406-9.523-9.842
	c0-5.434,4.265-9.84,9.523-9.84S82.935,100.104,82.935,105.538z"/>
<g enable-background="new    ">
	<path fill="#22314E" d="M207.167,54.614c0,13.812-7.041,22.321-18.378,25.281l17.065,35.271h-14.44l-16.588-34.16h-18.855v34.16
		h-12.292V28.839h36.637C194.875,28.839,207.167,36.855,207.167,54.614z M194.517,54.984c0-9.003-5.728-13.936-14.201-13.936
		h-24.345v27.747h24.345C188.669,68.795,194.517,64.356,194.517,54.984z"/>
</g>
<g enable-background="new    ">
	<path fill="#22314E" d="M293.685,71.879c0,26.884-14.559,44.642-35.803,44.642c-21.122,0-35.443-17.512-35.443-44.395
		c0-26.884,14.561-44.643,35.684-44.643C279.364,27.483,293.685,44.995,293.685,71.879z M280.915,72.125
		c0-19.608-9.785-31.817-23.152-31.817c-13.246,0-22.555,11.962-22.555,31.57s9.666,31.817,23.033,31.817
		C271.487,103.696,280.915,91.733,280.915,72.125z"/>
</g>
<g enable-background="new    ">
	<path fill="#22314E" d="M367.313,90.377c0,15.538-9.549,26.144-30.91,26.144c-12.172,0-22.674-5.426-29.715-13.935l8.951-9.003
		c5.607,6.289,13.842,10.236,21.719,10.236c11.695,0,17.305-4.193,17.305-12.579c0-6.659-4.893-9.989-18.855-14.305
		c-17.662-5.426-26.135-9.989-26.135-25.404c0-14.922,12.172-24.048,27.566-24.048c11.338,0,19.93,4.316,27.328,11.716l-8.83,9.249
		c-5.252-5.55-11.219-8.263-19.453-8.263c-9.785,0-13.963,4.933-13.963,10.729c0,6.042,3.82,9.002,18.26,13.442
		C357.05,69.536,367.313,74.962,367.313,90.377z"/>
</g>
<g>
	<path fill="#22314E" d="M454.879,114.652h-61.546c0.858-25.133,16.061-36.29,32.979-46.343
		c11.647-6.866,14.589-10.667,14.589-16.674c0-6.866-4.658-11.279-16.428-11.279c-7.233,0-15.203,3.31-20.719,8.582l-8.215-9.808
		c7.724-7.233,18.635-11.647,29.302-11.647c17.777,0,29.179,7.601,29.179,23.417c0,13.241-6.498,18.881-21.577,27.831
		c-16.429,9.685-21.087,15.203-23.049,23.416h45.485V114.652z"/>
</g>
<g>
	<path fill="#22314E" d="M470.934,30.013h-2.75v8.046h-1.414v-8.046h-2.75v-1.388h6.914V30.013z"/>
	<path fill="#22314E" d="M481.235,38.059h-1.388v-4.986c0-0.566,0.013-1.388,0.026-1.658c-0.108,0.269-0.377,0.943-0.606,1.483
		l-2.291,5.31l-2.264-5.31c-0.229-0.539-0.499-1.213-0.607-1.483c0.013,0.269,0.026,1.091,0.026,1.658v4.986h-1.333v-9.434h1.455
		l2.116,5.027c0.229,0.539,0.526,1.226,0.647,1.618c0.134-0.391,0.404-1.065,0.633-1.618l2.075-5.027h1.51V38.059z"/>
</g>
</svg>
